PathFileType	4	(X/Y/Z)	Patient4_TMGait_0pt6_02_left_33.trc.trc
DataRate	CameraRate	NumFrames	NumMarkers	Units	OrigDataRate	OrigDataStartFrame	OrigNumFrames
82.352941176470	82.352941176470	6	33	mm	82.352941176470	124	       141
Frame#	Time	Sacral			L.Shoulder			Chest			R.Shoulder			Neck			R.ASIS			L.ASIS			R.Thigh.Superior			R.Thigh.Lateral			R.Thigh.Inferior			R.Patella			L.Thigh.Superior			L.Thigh.Lateral			L.Thigh.Inferior			L.Patella			L.Shank.Superior			L.Shank.Lateral			L.Shank.Inferior			R.Shank.Superior			R.Shank.Lateral			R.Shank.Inferior			R.Heel			R.Midfoot.Superior			R.Midfoot.Lateral			R.Toe			L.Heel			L.Midfoot.Lateral			L.Midfoot.Superior			L.Toe			L.Elbow			L.Wrist			R.Elbow			R.Wrist			
		X1	Y1	Z1	X2	Y2	Z2	X3	Y3	Z3	X4	Y4	Z4	X5	Y5	Z5	X6	Y6	Z6	X7	Y7	Z7	X8	Y8	Z8	X9	Y9	Z9	X10	Y10	Z10	X11	Y11	Z11	X12	Y12	Z12	X13	Y13	Z13	X14	Y14	Z14	X15	Y15	Z15	X16	Y16	Z16	X17	Y17	Z17	X18	Y18	Z18	X19	Y19	Z19	X20	Y20	Z20	X21	Y21	Z21	X22	Y22	Z22	X23	Y23	Z23	X24	Y24	Z24	X25	Y25	Z25	X26	Y26	Z26	X27	Y27	Z27	X28	Y28	Z28	X29	Y29	Z29	X30	Y30	Z30	X31	Y31	Z31	X32	Y32	Z32	X33	Y33	Z33	

124	41.783571428571	802.966336818988	1005.781676657202	495.413392229513	977.452601853662	1426.394946940839	303.885858544855	1096.374398173645	1348.262367668970	447.676205480515	1040.111849171559	1426.005771118576	629.371934683342	994.188178084617	1482.911849269553	455.338315458841	1030.830973756242	929.544221030237	596.260183455477	1002.322119177416	945.828378518132	321.342031717379	1019.985616144140	716.847976850097	572.226381092287	910.096846804983	627.429497481195	631.936554101803	968.268265544577	559.107017146277	552.513027425794	944.829384367521	473.979526862670	554.969124458849	1074.218451249124	766.019548663575	358.101787621928	1020.886128419598	633.702407060843	287.295883146891	1125.283633565977	577.141153014137	347.800398575716	1149.188023036835	511.026943218190	347.945143787172	1135.039269852312	438.489942861288	339.574786314380	1070.514252329628	305.293589963319	297.570887391131	1161.923188206662	211.287111888946	353.125997437467	902.252294956063	392.407281163525	560.538242916361	813.666865726835	302.075335874426	621.633581775182	837.251289839538	202.416550212826	555.948743213561	681.353814755770	48.822600419163	521.627797219408	853.519001679252	97.011700114434	561.547843706180	762.713539143819	38.369747609015	596.773251565426	971.264111488510	38.600339005527	591.430572760961	1081.063409623761	38.931527089823	402.074492455932	1151.059252734529	39.705376699310	318.391715448972	1226.394927661379	111.498901233067	335.915165862781	1357.027141993028	73.939062272089	304.170587059988	819.448358208143	1104.465608465365	220.450706787708	764.679203100728	850.610687944134	247.092390312582	1193.746575378327	1122.202993205804	728.386773631265	1420.846753865718	1165.820730544379	624.339548003812	
125	41.795714285714	804.548311246839	1004.309766617657	492.811840819631	977.553586409263	1425.384994972873	301.777022359706	1096.594840709978	1348.006481942520	445.925581067611	1039.291755935912	1425.494708769798	627.531219001025	993.684045039578	1482.087860318626	453.250252037625	1032.312911075706	928.478880868143	594.473400406183	1004.882208913949	944.956019888769	319.636586774417	1021.424515614262	715.523458088450	570.802747264333	911.161900003577	626.215630643270	630.167944346094	969.622743744687	557.539719359431	551.089868544438	945.680996267595	471.436858671846	553.570305470691	1076.887688328863	764.542021481817	356.913334122787	1022.171519160688	632.290297174086	287.267245136657	1126.179002004281	575.554384317132	348.172443628374	1148.470004632866	508.375218582876	349.262376514000	1133.906445023976	435.538020084806	340.715593887621	1067.728716246754	303.242422524708	298.334047947580	1156.841300626855	207.932792942228	355.262150336684	901.304713203523	390.539596766367	559.244864222956	810.965606693056	302.081160214782	620.679484904864	832.446805526663	201.852557199120	555.395137850405	674.091271438695	50.069147144800	521.786651191149	846.603991509328	97.192303844955	561.589913735064	755.460386509433	38.867217436491	596.785979087737	964.026430238678	38.381166579865	591.508340035082	1071.451416472104	38.278659223596	403.748444130855	1141.827996760261	37.825518205092	320.238237668589	1219.469178634815	106.887960468693	339.088452294978	1349.429111399240	65.311140406785	307.498647068654	819.738246386370	1103.556752883721	218.554873256965	764.300415687117	849.826723139131	245.299954247278	1192.586711574471	1121.182754429945	726.932089600407	1418.406041880341	1168.713190889393	622.233144124805	
126	41.807857142857	806.049944765282	1003.052361491068	490.223456934743	977.804607285961	1424.461433961467	299.521608994068	1096.915174297572	1347.862056041128	444.102009093022	1038.589223104380	1425.243386510359	625.582936986245	993.379580565555	1481.458036448521	450.976823638114	1033.740444494008	927.567890940652	592.619404741218	1007.287277252526	944.340193243420	317.951842168389	1023.170072386902	714.390230579857	569.254284707479	912.775529213681	625.005364916333	628.291921959375	971.700019012932	556.054073642231	549.579571995369	947.429811651740	468.746634084658	552.272500943923	1079.457137391106	763.390511424819	355.751433722150	1023.699924408845	631.478751730280	286.779798399334	1127.144732030721	574.446572354379	348.340065308571	1147.864215903551	506.312923093696	350.185012602935	1132.947157191478	433.194229233428	341.396880055481	1065.366855855302	301.796899795432	298.290458825780	1152.074282528864	205.249477838477	356.768507336920	900.980503993845	388.700178108016	557.997482759441	808.708089555594	302.332708369107	619.689091118956	827.982894811922	201.508060729599	554.891799963826	666.914418111723	51.888775924451	521.967219227123	839.910527964102	97.437176471805	561.665790820255	748.268921781404	39.636726444187	596.810523269635	956.817595676542	38.148290375257	591.573704750561	1062.431162567971	37.864512676430	404.699526116309	1133.199415576247	36.520953380683	321.383780063516	1212.689203366900	103.286656959901	341.543863095494	1342.099954882882	58.471121809579	310.197227756617	820.891573800146	1102.260910266283	216.411981857324	765.178109619920	848.560001070017	243.035178523538	1190.654502735440	1119.871120985806	725.813656455281	1415.520642991718	1170.218504507059	620.568680752477	
127	41.820000000000	807.442974777033	1002.077149206253	487.677994520378	978.199826340075	1423.696621892530	297.152949290209	1097.322941757138	1347.872411812626	442.220225488539	1038.034431591196	1425.302008340335	623.537996994947	993.287229814927	1481.077774584556	448.548296554538	1035.069073244922	926.886860835397	590.692982246984	1009.471197766628	944.036965126281	316.257592608571	1025.213651981190	713.526880419142	567.560581894133	914.990820018140	623.851082152908	626.343937889274	974.565309537389	554.718145715248	548.016407282796	950.171770276742	465.976984012267	551.176822197256	1081.866439354529	762.660006762575	354.569337569674	1025.413551103557	631.280103860414	285.842087714256	1128.143285590297	573.835409355084	348.201716136852	1147.384402333044	504.871272717623	350.601010671771	1132.135187848983	431.475462199267	341.592226173799	1063.347816599181	300.966957842395	297.527097948771	1147.587753106964	203.258648064084	357.655360046049	901.367037632979	386.958355387913	556.881550032233	806.971252535810	302.931445606803	618.710948179408	823.950434084695	201.478825916886	554.496928633881	659.895814733418	54.455701233742	522.181814865333	833.524596197639	97.773132061997	561.812172547234	741.182390678304	40.776662914196	596.856569480755	949.638828894621	37.909647962460	591.618033373124	1054.080832202934	37.662415340617	405.062266704018	1125.201207109749	35.732453588342	321.923016718534	1206.047477113443	100.717363362993	343.245976746102	1335.038973658762	53.523006839014	312.169263912367	822.922024708434	1100.652261112885	214.035069463817	767.339209677795	846.876399893391	240.312881703722	1187.907126313851	1118.331499696074	724.997353211267	1412.219980548613	1170.295251393265	619.347700550266	
128	41.832142857143	808.710689071982	1001.434873401539	485.186949480239	978.721736570963	1423.154952991187	294.709451977303	1097.798234841254	1348.072683556143	440.294816189883	1037.645208675275	1425.697599656116	621.409424074064	993.397547443628	1480.985153190006	446.004592670578	1036.261236566960	926.497086842174	588.689121288374	1011.396849897530	944.081078839985	314.513391160667	1027.548127525726	713.000455106837	565.716055749762	917.855875479784	622.801078969404	624.370452808943	978.280925426890	553.595357157983	546.449868583731	953.989440380284	463.208357426069	550.386956927937	1084.071286175264	762.399641257511	353.294866136821	1027.197676641465	631.632844251354	284.516859626378	1129.096248973628	573.664364913360	347.685933477338	1146.987071241345	503.996384068004	350.477501678481	1131.385801015959	430.321926983169	341.342418695383	1061.510409249461	300.692092015641	296.218487776405	1143.273731884361	201.900988457175	358.005633145315	902.561362962889	385.379636457581	555.985749950948	805.849199271733	303.974033984452	617.796956782217	820.456528347129	201.858189602944	554.270066161660	653.137308374587	57.950009026713	522.442596759181	827.539806350147	98.232419817456	562.066886159897	734.260350043868	42.400028600579	596.932798443537	942.491096013917	37.673326525846	591.634005226124	1046.347416184326	37.625242977152	404.994003346877	1117.748707025471	35.359744108146	321.989058328115	1199.484770648584	99.087016164804	344.250606464117	1328.181289857836	50.346039857039	313.421231763374	825.822826275701	1098.819317300506	211.436240357776	770.817661367898	844.857085776189	237.156114859140	1184.299052223541	1116.637642183168	724.439220409847	1408.503690001348	1168.901086341056	618.568053881404	
129	41.844285714286	809.845905735807	1001.149999250658	482.740937199044	979.345257553041	1422.883327872266	292.229256083859	1098.315738184034	1348.484477071229	438.340695784804	1037.417905476714	1426.427313904537	619.213104558354	993.679511197650	1481.194450355394	443.390620643195	1037.289150959417	926.435155534504	586.607056634599	1013.060672391865	944.479351507020	312.680812404249	1030.174188386865	712.859166169580	563.736385047937	921.410955148808	621.894386555569	622.424354539874	982.902125087838	552.739385146520	544.939681599201	958.944872751942	460.528553462818	549.990237019634	1086.044212972743	762.590661219130	351.840823550568	1028.875615482286	632.403181125550	282.910002271030	1129.883672717740	573.809079668909	346.766118214041	1146.572844251063	503.567622979052	349.868948930502	1130.568567914113	429.618385371231	340.744166229260	1059.654366679260	300.856602066987	294.592559091859	1138.991926265943	201.060531352754	357.954332580216	904.666277059895	384.021890245215	555.387261630997	805.453467844745	305.543651757673	616.994861487505	817.621439608169	202.731144704548	554.262546586521	646.772768241955	62.548589247212	522.759703076119	822.052563488805	98.853776972755	562.462199287176	727.580811568850	44.633398166214	597.046201274649	935.376718805708	37.444189194691	591.617363197693	1039.097633523447	37.697513138703	404.652067839930	1110.695976250683	35.285818232847	321.730204206095	1192.925608247806	98.224601214488	344.682177893700	1321.435290785580	48.656216794124	314.043575690628	829.564978701030	1096.856845253395	208.623226511413	775.654527510263	842.592289700588	233.595096886744	1179.786497527600	1114.864107088740	724.087732622335	1404.337907494443	1165.991210242998	618.225044858522	
